<?xml version="1.0" encoding="UTF-8" standalone="no"?>
<svg xmlns="http://www.w3.org/2000/svg" height="751" width="327" version="1.1">
  <path
     fill="#ffffff"
     style="fill-opacity:1;stroke:none"
     d="m 88.559837,26.102062 c 2.692,-2.029 5.516,-4.147 9.087,-2.614 0.46,2.654 -3.003,3.493 -2.215,6.331 2.083,-1.335 12.993003,-6.524 8.191003,0.46 -4.750002,6.904 5.543,-0.085 7.571,2.389 1.615,1.969 -0.987,3.372 -2.103,4.455 -2.902,2.815 -0.023,5.333 0.167,8.334 0.682,10.755 -3.598,20.837 -5.192,31.304 -1.302,8.55 -4.444002,17.09 -2.307,25.799998 0.162,0.661 -3.459003,18.66701 4.024,11.03301 11.449,-11.68801 6.13,-29.898008 16.862,-40.743008 7.581,-7.662 3.372,-8.517 3.421,-18.399 0.038,-7.693 4.423,-15.272 11.062,-19.151 5.763,-3.367 13.282,-2.519 17.119,3.291 6.362,9.634 8.176,7.305 19.94,9.966 9.526,2.154 16.175,4.781 25.565,0.728 6.128,-2.645 13.805,-2.524 15.082,5.619 1.245,7.932 -1.721,15.536 -6.914,21.468 -3.153,3.604 -1.342,6.299 -0.526,10.616 1.209,6.394 -0.783,11.946 -0.381,18.112998 0.401,6.14401 15.313,-5.820998 17.368,-6.833998 7.236,-3.563 18.43,-5.228 24.404,-10.645 6.214,-5.636 -1.442,-11.186 0.639,-14.815 1.911,-3.333 0.981,-2.673 0.09,-7.304 -1.115,-5.806 1.202,-10.826 1.156,-16.526 -0.065,-8.053 -7.571,-11.985 -6.812,-20.508 0.319,-3.586 2.089,-6.879 2.031,-10.509 -0.049,-3.08 -3.789,-5.146 -3.102,-7.744 0.78,-2.9529998 9.349,-6.9609998 12.119,-5.7169998 3.768,1.694 6.098,-0.418 9.634,-1.275 4.717,-1.144 8.967,3.046 13.916,2.959 10.406,-0.184 11.202,2.13 16.043,10.3629998 3.964,6.74 8.21,8.386 10.668,16.361 2.641,8.571 6.141,17.045 6.41,26.137 0.1,3.424 3.669,6.031 5.282,8.664 3.108,5.073 -0.89,10.49 1.333,14.688 3.376,6.377 6.423,20.218998 4.689,27.367008 -1.709,7.049 -10.326,10.557 -10.913,18.088 -0.253,3.279 -8.585,12.867 -10.917,15.574 -2.371,2.753 -5.876,3.892 -8.207,6.533 -2.887,3.271 -4.678,7.354 -7.731,10.665 -11.849,12.847 -18.42,29.505 -30.306,41.994 -9.257,9.729 -21.784,21.434 -27.487,33.823 -6.264,13.598 -30.642,21.043 -25.193,38.659 1.863,6.02 2.611,12.489 4.584,18.363 2.847,8.472 0.492,16.71599 2.229,25.90599 1.724,9.135 -5.763,12.614 -0.166,22.027 4.196,7.06 -4.024,13.832 -4.371,21.052 -0.314,6.534 8.635,7.548 11.696,12.672 3.815,6.385 8.426,15.209 13.699,20.336 2.575,2.506 -1.098,5.104 -1.521,7.484 -0.63,3.552 2.58,6.905 4.213,9.596 3.862,6.369 9.121,18.75901 9.111,26.20501 -0.012,8.188 -3.854,14.739 -2.221,23.539 1.83,9.864 5.384,19.695 7.746,29.474 3.856,15.964 13.737,34.88 10.836,51.252 -1.856,10.465 -42.504,12.738 -46.144,4.097 -3.944,-9.355 -7.85,-18.726 -11.635,-28.146 -1.693,-4.217 -2.988,-9.134 -5.428,-13.003 -1.821,-2.889 -6.247,-3.575 -8.779,-5.847 -8.944,-8.018 -19.105,-16.65 -26.687,-26.504 -11.533,-14.991 -21.946,-26.161 -37.609,-36.869 -4.298,-2.938 -16.366,-16.15601 -21.303,-11.28201 -6.069003,5.99401 -8.401003,13.82801 -8.476003,22.17801 -0.089,9.759 0.97,19.49 0.781,29.25 -0.189,9.827 -3.357,17.236 -5.699,26.402 -3.923,15.352 -19.072999,10.373 -30.446999,17.716 -9.034,5.83 -26.833,11.162 -37.437,6.831 -16.9160008,-6.91 -1.51,-25.041 1.101,-34.482 3.666,-13.259 -8.849001,-22.486 -14.5970008,-32.855 -6.646,-11.99 -12.4549997,-25.43 -9.049,-39.59501 0.887,-3.687 -1.307,-8.853 -0.38,-11.394 1.757,-4.817 7.3150001,-7.004 8.841,-12.972 3.76,-14.704 7.6379998,-27.603 8.7140008,-43.021 0.582,-8.341 -1.163001,-16.201 -1.433001,-24.467 -0.24,-7.36 2.776001,-14.345 2.625001,-21.483 -0.151,-7.20199 -3.064001,-9.38399 -1.391001,-16.93099 0.601001,-2.715 4.723001,-13.488 3.187001,-15.72 -3.520001,-5.114 -0.839,-9.767 2.514,-13.974 4.849,-6.085 2.373,-9.972 3.467,-16.622 0.692,-4.204 9.577,-11.977 12.245,-15.773 3.967,-5.646 9.272,-9.829 11.209,-16.706 1.537,-5.455 -0.452,-11.581 2.219,-16.56 3.625,-6.756 -1.1,-10.354 -3.248,-16.164 -2.416,-6.536 -0.759,-14.217 0.099,-20.862 0.931,-7.204 -1.588,-13.021 -2.044,-20.066 -0.817,-12.633 -8.678,-21.917 -8.159,-35.23901 0.274,-7.055998 4.817,-9.217998 6.106,-15.564998 1.49,-7.335 2.615,-14.693 4.241,-22.028 2.27,-10.237 5.698,-25.7 13.445,-33.424 3.587,-3.577 26.304999,-16.489 31.335999,-10.715 0.257,1.811 -0.272,3.441 -1.587,4.891 2.728,-2.055 2.42,-4.12 0,0"/>
</svg>
